<svg width="42" height="43" viewBox="0 0 42 43" fill="none" xmlns="http://www.w3.org/2000/svg">
<path fill-rule="evenodd" clip-rule="evenodd" d="M0 10.6213C0 5.09849 4.47715 0.621338 10 0.621338H32C37.5228 0.621338 42 5.09849 42 10.6213V25.4506C42 30.9735 37.5228 35.4506 32 35.4506H26.775L15.75 42.6213V35.4605L25.0329 29.1209H31.8293C33.4861 29.1209 34.8293 27.7778 34.8293 26.1209V10.6213C34.8293 8.96448 33.4861 7.62134 31.8293 7.62134H9.82927C8.17241 7.62134 6.82927 8.96448 6.82927 10.6213V26.1209C6.82927 27.7778 8.17242 29.1209 9.82927 29.1209H15.5145V35.4506H10C4.47715 35.4506 0 30.9735 0 25.4506V10.6213Z" fill="#63647A"/>
</svg>
